<?xml version="1.0" encoding="utf-8"?>
<!-- Generator: Adobe Illustrator 19.2.1, SVG Export Plug-In . SVG Version: 6.00 Build 0)  -->
<svg version="1.1" id="Layer_1" xmlns="http://www.w3.org/2000/svg" xmlns:xlink="http://www.w3.org/1999/xlink" x="0px" y="0px"
	 viewBox="0 0 56 54" style="enable-background:new 0 0 56 54;" xml:space="preserve">
<style type="text/css">
	.st0{fill:#FFFFFF;}
</style>
<path id="home_icon" class="st0" d="M28.1,0L0,28.2l1.4,1.4l5.8-5.8V49c0,2.8,2.2,5,5,5H44c2.8,0,5-2.2,5-5V23.9l5.7,5.7l1.4-1.4
	L28.1,0z M34.7,52H21.6V27.4h13.2L34.7,52L34.7,52z M46.9,49c0,1.6-1.3,3-3,3h-7.2V25.4H19.6V52h-7.4c-1.6,0-3-1.4-3-3V21.8l18.9-19
	l18.9,19V49L46.9,49z"/>
</svg>
