<?xml version="1.0" encoding="utf-8"?>
<!-- Generator: Adobe Illustrator 19.2.1, SVG Export Plug-In . SVG Version: 6.00 Build 0)  -->
<svg version="1.1" id="Layer_1" xmlns="http://www.w3.org/2000/svg" xmlns:xlink="http://www.w3.org/1999/xlink" x="0px" y="0px"
	 viewBox="0 0 57 41" style="enable-background:new 0 0 57 41;" xml:space="preserve">
<style type="text/css">
	.st0{fill:#FFFFFF;}
</style>
<path id="people_icon" class="st0" d="M54.4,32c-0.5-1.6-1.6-3-3.1-3.9c-3.1-0.8-6.2-1.7-9.2-2.8c-0.7-0.3-1.2-0.9-1.6-1.6
	c3.3-2.3,5.6-6.9,5.6-12.8C46.1,2.3,41.3,0,35.4,0S24.7,2.3,24.7,10.9c0,5.9,2.3,10.5,5.6,12.8c-0.4,0.7-0.9,1.2-1.6,1.6
	c-0.4,0.2-0.9,0.4-1.6,0.6c-0.3-0.4-0.7-0.7-1.2-1c-2.1-0.5-4.3-1.2-6.3-1.9c-0.5-0.2-0.9-0.6-1.1-1.1c2.3-1.6,3.9-4.8,3.9-8.9
	c0-5.9-3.3-7.6-7.4-7.6S7.6,7,7.6,12.9c0,4.1,1.6,7.3,3.9,8.9c-0.2,0.5-0.6,0.9-1.1,1.1c-2.1,0.8-4.2,1.4-6.3,1.9
	c-1,0.6-1.8,1.6-2.1,2.7C1.4,28.8,0.8,30,0,31c1.9,1.9,8.5,2.8,15,2.8c0.3,0,0.5,0,0.7,0c-0.5,1.1-1.1,2.1-1.9,3.1
	c2.8,2.7,12.2,4.1,21.6,4.1c9.4,0,18.8-1.4,21.5-4.1C55.8,35.5,55,33.8,54.4,32z M2.8,30.3c0.4-0.7,0.7-1.4,0.9-2.2
	c0.2-0.6,0.6-1.1,1.1-1.4c2.2-0.5,4.3-1.2,6.3-2c0.9-0.4,1.6-1.1,2-1.9l0.9-1.6l-1.5-1c-1.9-1.3-3-4-3-7.2c0-4,1.5-5.6,5.4-5.6
	s5.4,1.6,5.4,5.6c0,3.2-1.1,5.9-3,7.3l-1.5,1l0.9,1.6c0.5,0.8,1.2,1.5,2,1.9c2,0.8,4,1.4,6.1,1.9c-2.6,0.8-5.3,1.5-5.3,1.5
	c-1.4,0.9-2.5,2.2-3,3.8c-0.5,0-1,0-1.5,0C9.3,31.8,5,31.2,2.8,30.3L2.8,30.3z M35.5,39c-9.1,0-15.8-1.2-18.8-2.6
	c0.7-1.2,1.3-2.5,1.8-3.9c0.4-1.1,1.1-2,2-2.6c3.1-0.8,6.2-1.7,9.2-2.8c1.1-0.5,2-1.4,2.5-2.4l0.9-1.6l-1.5-1
	c-2.9-2.1-4.7-6.2-4.7-11.2c0-6.2,2.6-8.9,8.7-8.9s8.7,2.7,8.7,8.9c0,5-1.8,9.1-4.8,11.2l-1.5,1l0.9,1.6c0.6,1,1.4,1.9,2.5,2.4
	c3,1.1,6.1,2.1,9.2,2.8c0.9,0.6,1.6,1.6,2,2.6c0.4,1.4,1,2.7,1.8,3.9C51.2,37.8,44.5,39,35.5,39L35.5,39z"/>
</svg>
