<?xml version="1.0" encoding="utf-8"?>
<!-- Generator: Adobe Illustrator 19.2.1, SVG Export Plug-In . SVG Version: 6.00 Build 0)  -->
<svg version="1.1" id="Layer_1" xmlns="http://www.w3.org/2000/svg" xmlns:xlink="http://www.w3.org/1999/xlink" x="0px" y="0px"
	 viewBox="0 0 56.7 38" style="enable-background:new 0 0 56.7 38;" xml:space="preserve">
<style type="text/css">
	.st0{fill:#FFFFFF;}
</style>
<path id="quotes_icon" class="st0" d="M16.4,0.9c-0.4-0.6-1.1-1-1.8-0.9C12,0,6.6,1.9,3.2,5.5c-2.1,2.1-3.3,5-3.2,8
	c0,2,0.8,4,2.2,5.4c1.4,1.4,3.4,2.2,5.4,2.1c3-0.1,5.5-2.4,5.8-5.4c0.2-2.1-0.7-4.7-4.1-5.8c1-3,3.7-5.1,5.4-6.5
	C15.9,2.4,16.7,1.8,16.4,0.9z M32.5,0.9c-0.4-0.6-1.1-1-1.8-0.9c-2.6,0-8,1.9-11.4,5.5c-2.1,2.1-3.3,5-3.2,8c0,2,0.8,4,2.2,5.4
	c1.4,1.4,3.4,2.2,5.4,2.1c3-0.1,5.5-2.4,5.8-5.4c0.2-2.1-0.7-4.7-4.1-5.8c1-3,3.7-5.1,5.4-6.5C32,2.4,32.8,1.8,32.5,0.9z M56.7,27.8
	c0-1.6-0.6-3.1-1.7-4.2c-1.1-1.1-2.6-1.7-4.2-1.6c-2.4,0.1-4.3,1.9-4.5,4.2c-0.2,2,1,3.9,2.9,4.5c-0.9,1.8-2.2,3.3-3.8,4.4
	c-0.9,0.7-1.6,1.3-1.3,2.1c0.3,0.6,0.9,0.9,1.6,0.8c3.3-0.3,6.3-1.8,8.6-4.2C55.9,32.3,56.8,30.1,56.7,27.8z M44.8,27.8
	c0-1.6-0.6-3.1-1.7-4.2c-1.1-1.1-2.6-1.7-4.2-1.6c-2.3,0.1-4.3,1.9-4.5,4.2c-0.2,2,1,3.9,2.9,4.5c-0.9,1.8-2.2,3.3-3.8,4.4
	c-0.9,0.7-1.6,1.3-1.3,2.1c0.3,0.6,0.9,0.9,1.6,0.8c3.3-0.3,6.3-1.8,8.6-4.2C44,32.3,44.9,30.1,44.8,27.8L44.8,27.8z"/>
</svg>
