<?xml version="1.0" encoding="utf-8"?>
<!-- Generator: Adobe Illustrator 19.2.1, SVG Export Plug-In . SVG Version: 6.00 Build 0)  -->
<svg version="1.1" id="Layer_1" xmlns="http://www.w3.org/2000/svg" xmlns:xlink="http://www.w3.org/1999/xlink" x="0px" y="0px"
	 viewBox="0 0 54.4 54" style="enable-background:new 0 0 54.4 54;" xml:space="preserve">
<style type="text/css">
	.st0{fill:#FFFFFF;}
</style>
<path id="rent_icon" class="st0" d="M10.2,34.3c-2.3-2.3-6.1-2.3-8.5,0c-2.3,2.3-2.3,6.1,0,8.5l9.5,9.5c2.3,2.3,6.1,2.3,8.5,0
	s2.3-6.1,0-8.5l0,0L10.2,34.3z M18.3,50.8c-1.6,1.6-4.1,1.6-5.6,0l-9.5-9.5c-1.6-1.6-1.6-4.1,0-5.6s4.1-1.6,5.6,0l0,0l9.5,9.5
	C19.9,46.8,19.9,49.3,18.3,50.8L18.3,50.8z M15.9,39.9L54.4,1.4L53,0l-7.2,7.2l-6.9-6.9L36,3.1l6.9,6.9l-5.5,5.5l-4.6-4.6l-1.4,1.4
	l4.6,4.6L14.5,38.5L15.9,39.9z"/>
</svg>
